<?xml version="1.0"?>
<svg width="24" height="24" xmlns="http://www.w3.org/2000/svg" xmlns:svg="http://www.w3.org/2000/svg" version="1.1">
 <g class="layer">
  <title>Layer 1</title>
  <g id="svg_1">
   <path d="m6.06,-1014.4c1.47,0.61 3.57,1 5.94,1s4.47,-0.39 5.94,-1l-11.88,0z" fill="#2c3e50" id="svg_2" transform="translate(0 1028.4)"/>
   <path d="m7,5l10,0l1,9l-12,0l1,-9z" fill="#2c3e50" id="svg_3"/>
   <path d="m8,16c-2.28,1.1 -4.57,2.2 -6.86,3.4c-0.89,0.5 -1.23,1.6 -1.14,2.6c0.04,0.6 -0.18,1.4 0.44,1.8c0.59,0.3 1.28,0.1 1.93,0.2l20.73,0c0.77,-0.1 0.98,-0.9 0.9,-1.5c0.01,-1 0.07,-2 -0.66,-2.7c-0.59,-0.6 -1.43,-0.9 -2.15,-1.3c-1.73,-0.8 -3.46,-1.7 -5.19,-2.5l-8,0z" fill="#d35400" id="svg_4"/>
   <rect fill="#95a5a6" height="5" id="svg_5" width="6" x="9" y="13"/>
   <path d="m12,0c-2.96,0 -5.42,2.7 -5.91,6.2c-0.11,0 -0.24,-0.1 -0.34,-0.1c-0.53,0.2 -0.65,1.2 -0.31,2.3c0.2,0.6 0.53,1.1 0.87,1.3c0.78,3.1 3.02,5.3 5.69,5.3c2.67,0 4.91,-2.2 5.69,-5.3c0.34,-0.2 0.67,-0.7 0.87,-1.3c0.34,-1.1 0.21,-2.1 -0.31,-2.3c-0.1,0 -0.23,0.1 -0.34,0.1c-0.49,-3.5 -2.95,-6.2 -5.91,-6.2z" fill="#bdc3c7" id="svg_6"/>
   <path d="m8,16c0,1.63 1.05,6.02 2.53,8l2.94,0c1.48,-1.98 2.53,-6.37 2.53,-8l-8,0z" fill="#ecf0f1" id="svg_7"/>
   <path d="m12,0c-3.59,0 -7.13,3.6 -7,7c-0.05,2.2 1,4.6 1.04,6.8c1.04,-1.3 1.01,-2.9 0.97,-4.5c0.21,-1.1 0.01,-2.7 0.99,-3.3c2.37,-1.2 3.82,-3.5 4.59,-6l-0.59,0z" fill="#34495e" id="svg_8"/>
   <path d="m9.01,15.94c0,0.82 1.34,3.52 2.99,3.52c1.65,0 2.99,-2.7 2.99,-3.52l-5.97,0z" fill="#95a5a6" id="svg_9"/>
   <path d="m12,0c3.59,0 7.13,3.6 7,7c0.05,2.2 -1,4.6 -1.04,6.8c-1.05,-1.3 -1.01,-2.9 -0.97,-4.5c-0.21,-1.1 -0.01,-2.7 -0.99,-3.3c-2.37,-1.2 -3.82,-3.5 -4.59,-6l0.59,0z" fill="#34495e" id="svg_10"/>
  </g>
 </g>
</svg>